<?xml version="1.0" standalone="no"?>
<!DOCTYPE svg PUBLIC "-//W3C//DTD SVG 20010904//EN"
 "http://www.w3.org/TR/2001/REC-SVG-20010904/DTD/svg10.dtd">
<svg version="1.0" xmlns="http://www.w3.org/2000/svg"
 width="1287.000000pt" height="769.000000pt" viewBox="0 0 1287.000000 769.000000"
 preserveAspectRatio="xMidYMid meet">

<g transform="translate(0.000000,769.000000) scale(0.100000,-0.100000)"
fill="#000000" stroke="none">
<path d="M200 3415 l0 -815 75 0 75 0 2 710 3 709 344 -709 344 -710 98 0 99
0 0 815 0 815 -70 0 -70 0 -2 -703 -3 -703 -335 700 -335 701 -113 3 -112 3 0
-816z"/>
<path d="M1620 3415 l0 -815 80 0 80 0 0 380 0 380 280 0 280 0 0 65 0 65
-280 0 -280 0 0 305 0 305 320 0 320 0 0 65 0 65 -400 0 -400 0 0 -815z"/>
<path d="M2680 3415 l0 -817 238 5 c198 4 251 8 321 26 227 58 364 194 421
418 48 187 48 551 0 738 -58 228 -189 357 -423 416 -68 18 -123 22 -319 26
l-238 5 0 -817z m489 660 c133 -32 238 -112 286 -218 55 -120 81 -314 71 -519
-16 -300 -85 -456 -234 -536 -81 -43 -164 -61 -319 -69 l-133 -6 0 688 0 688
133 -6 c72 -4 161 -13 196 -22z"/>
<path d="M3940 4165 l0 -65 75 0 75 0 0 -685 0 -685 -75 0 -75 0 0 -65 0 -65
240 0 240 0 0 65 0 65 -85 0 -85 0 0 685 0 685 85 0 85 0 0 65 0 65 -240 0
-240 0 0 -65z"/>
<path d="M5223 4218 c-5 -7 -150 -263 -321 -568 -298 -531 -312 -558 -312
-608 l0 -52 330 0 330 0 0 -195 0 -195 75 0 75 0 0 195 0 195 105 0 105 0 0
65 0 65 -105 0 -105 0 0 555 0 555 -84 0 c-55 0 -87 -4 -93 -12z m27 -658 l0
-440 -245 0 c-135 0 -245 2 -245 4 0 7 482 876 486 876 2 0 4 -198 4 -440z"/>
</g>
</svg>
